<svg height="512pt" viewBox="0 0 512 512" width="512pt" xmlns="http://www.w3.org/2000/svg"><path style="fill:#464646" d="m256 277.214844-21.214844-21.210938 21.214844-21.214844 21.214844 21.214844zm0 0"/><path style="fill:#464646" d="m462.511719 185.78125c-24.582031-11.390625-57.566407-20.5-95.96875-26.5625.179687-14.605469 2.234375-29.113281 6.902343-43.125l38.296876-116.09375h-311.484376l38.308594 116.136719c4.667969 13.996093 6.714844 28.488281 6.894532 43.082031-38.402344 6.058594-71.386719 15.171875-95.972657 26.5625-32.839843 15.210938-49.488281 33.789062-49.488281 55.21875v60c0 19.199219 14.113281 46.46875 81.34375 67.355469 6.140625 1.910156 12.542969 3.703125 19.171875 5.382812.269531 15.496094 1.925781 30.953125 4.960937 46.136719l18.195313 92.125h264.65625l18.1875-92.089844c3.042969-15.207031 4.699219-30.671875 4.96875-46.171875 6.628906-1.679687 13.03125-3.472656 19.171875-5.382812 67.230469-20.886719 81.34375-48.15625 81.34375-67.355469v-60c0-21.429688-16.648438-40.007812-49.488281-55.21875zm-206.511719 115.21875c-35.945312 0-76.785156-2.789062-111.703125-10.023438 11.226563-30.800781 42.804687-100.929687 26.773437-169.988281h169.859376c-13.273438 57.226563 5.644531 116.839844 24.265624 163.386719.882813 2.203125 1.71875 4.4375 2.535157 6.683594-35.179688 7.191406-75.992188 9.941406-111.730469 9.941406zm-140.8125-17.730469c-15.828125-5.433593-21.664062-10.285156-23.5625-12.324219 2.824219-3.113281 12.382812-9.359374 34.140625-15.464843-4.589844 12.546875-7.328125 18.574219-10.578125 27.789062zm281.695312.195313c-3.566406-10.136719-5.261718-13.246094-10.660156-28.019532 22.082032 6.117188 31.988282 12.371094 35.050782 15.550782-2.058594 2.132812-8.179688 7.027344-24.390626 12.46875zm-26.625-253.464844-20.125 61h-188.265624l-20.125-61zm-226.96875 159.976562c-1.582031 10.820313-3.925781 21.546876-6.765624 32.019532-48.269532 10.203125-73.609376 25.855468-75.410157 46.601562-21.289062-10.058594-31.113281-20.375-31.113281-27.597656 0-13.839844 35.332031-37.730469 113.289062-51.023438zm-8.386718 224.050782c-2.222656-11.121094-3.597656-22.394532-4.148438-33.710938 33.445313 6.179688 71.027344 9.800782 110.246094 10.535156v91.148438h-92.675781zm242.1875.035156-13.417969 67.9375h-92.671875v-91.144531c39.214844-.738281 76.796875-4.359375 110.246094-10.539063-.550782 11.320313-1.925782 22.605469-4.15625 33.746094zm44.664062-74.355469c-44.1875 13.730469-103.054687 21.292969-165.753906 21.292969s-121.566406-7.5625-165.753906-21.292969c-41.617188-12.929687-60.246094-28.757812-60.246094-38.707031v-15.371094c54.542969 35.804688 160.996094 45.371094 226 45.371094 65.480469 0 171.613281-9.667969 226-45.371094v15.371094c0 9.949219-18.628906 25.777344-60.246094 38.707031zm30.085938-71.5625c-1.285156-12.230469-10.878906-22.710937-28.601563-31.183593-12.191406-5.828126-28.230469-10.851563-47.761719-14.972657-2.839843-10.46875-5.179687-21.191406-6.761718-32.011719 77.953125 13.296876 113.285156 37.183594 113.285156 51.023438 0 7.113281-9.527344 17.230469-30.160156 27.144531zm0 0"/></svg>