<svg xmlns="http://www.w3.org/2000/svg" width="1366" height="81.85" viewBox="0 0 1366 81.85">
  <path id="Rectangle_4" data-name="Rectangle 4" d="M.162,705.809c56.631-11.733,113.023-16.372,169.687-18.333,28.332-1.045,56.738-1.638,85.214-2.008q21.356-.268,42.756-.312,2.675,0,5.35-.005t5.351,0q5.351.006,10.7.03,10.706.048,21.419.166,42.825.172,85.724.813,5.361.072,10.724.149t10.725.156q10.726.159,21.453.33,21.455.342,42.917.73,85.844,1.547,171.571,4.19c114.2,3.561,227.918,8.96,341.338,11.07,113.43,2.394,226.4.876,338.915-2.61-.353,15.936.989,47.609.989,66.823H-1c.107-21.375.761-34.342,1.162-61.191Z" transform="translate(1 -685.15)" fill="#e2aa4f" opacity="0.4"/>
</svg>
