<svg height="503pt" viewBox="-25 0 503 503.77008" width="503pt" xmlns="http://www.w3.org/2000/svg"><path style="fill:#464646" d="m28.511719 255.617188c16.652343 14.371093 50.175781 33.027343 115.367187 41.742187l12.480469 60.675781-13.160156 4.304688c-8.816407 2.578125-15.527344 9.753906-17.511719 18.722656-1.988281 8.964844 1.066406 18.304688 7.964844 24.363281 6.902344 6.0625 16.554687 7.886719 25.191406 4.757813l7.816406-2.519532 3.632813 17.570313-11.75 3.824219c-12.785157 4.632812-19.585938 18.578125-15.359375 31.503906 4.226562 12.925781 17.953125 20.160156 31.003906 16.339844l7.503906-2.449219c8.792969 19.640625 29.253906 31.363281 50.648438 29.019531 21.390625-2.339844 38.828125-18.214844 43.164062-39.292968l4.558594-21.890626 21.167969-6.917968c12.132812-3.90625 19.417969-16.273438 16.957031-28.777344-2.464844-12.503906-13.894531-21.183594-26.601562-20.199219l4.355468-21.03125 22.722656-7.429687c12.242188-4.121094 19.378907-16.839844 16.519532-29.4375-2.859375-12.59375-14.785156-20.984375-27.609375-19.421875l2.410156-11.75c65.191406-8.710938 98.714844-27.371094 115.367187-41.738281 10.5625-9.207032 17.878907-21.566407 20.875-35.253907 14.480469-63.394531 8.703126-147.144531-30.367187-184.554687-48.445313-46.507813-134.90625-47.601563-188.910156-3.703125-54.019531-43.898438-140.464844-42.804688-188.945313 3.761719-39.070312 37.410156-44.847656 121.160156-30.367187 184.554687 3 13.675781 10.320312 26.027344 20.875 35.226563zm132.917969 43.730468c20.085937 1.945313 41.96875 2.996094 65.519531 2.996094s45.441406-1.050781 65.527343-2.996094l-3.113281 15.21875-116.972656 38.222656zm97.675781 161.449219c-3.1875 15.230469-16.597657 26.15625-32.15625 26.203125-12.269531.003906-23.503907-6.878906-29.074219-17.8125l63.789062-20.855469zm38.128906-56.816406c3.027344 1.535156 4.828125 4.746093 4.566406 8.128906-.257812 3.382813-2.53125 6.277344-5.757812 7.332031l-111.0625 36.316406-15.945313 5.222657c-2.875 1.03125-6.085937.417969-8.378906-1.597657-2.292969-2.019531-3.308594-5.125-2.652344-8.105468.65625-2.984375 2.882813-5.375 5.808594-6.246094l127.019531-41.546875c.84375-.273437 1.726563-.417969 2.617188-.417969 1.316406.003906 2.613281.316406 3.785156.914063zm-23.8125-12.464844-87.074219 28.453125-3.632812-17.558594 94.847656-31.011718zm37.460937-65.886719c2.917969-.003906 5.628907 1.511719 7.15625 4 1.527344 2.488282 1.652344 5.589844.332032 8.195313-.996094 1.996093-2.753906 3.507812-4.878906 4.195312l-159.859376 52.234375c-4.347656 1.261719-8.914062-1.148437-10.320312-5.453125-1.40625-4.304687.851562-8.949219 5.105469-10.496093l159.847656-52.25c.84375-.277344 1.726563-.421876 2.617187-.425782zm-261.261718-277.683594c22.882812-20.558593 52.765625-31.589843 83.523437-30.828124 32.339844-.460938 63.71875 11.011718 88.128907 32.230468 3.628906 3.5 53.828124 51.554688 98.003906 51.554688 4.632812 0 8.390625-3.757813 8.390625-8.394532 0-4.636718-3.757813-8.394531-8.390625-8.394531-29.488282 0-64.847656-27.882812-79.503906-40.648437 47.296874-36.394532 123.214843-35.125 164.511718 4.480468 34.1875 32.738282 38.710938 111.347657 25.609375 168.710938-2.210937 10.183594-7.636719 19.386719-15.476562 26.253906-15.394531 13.277344-47.398438 30.761719-112.421875 38.609375-24.914063 2.824219-49.972656 4.171875-75.046875 4.039063-25.070313.125-50.128907-1.226563-75.039063-4.054688-65.03125-7.832031-97.027344-25.324218-112.429687-38.59375-7.839844-6.867187-13.265625-16.070312-15.476563-26.253906-13.101562-57.351562-8.570312-135.964844 25.617188-168.710938zm0 0"/><path style="fill:#464646" d="m48.605469 175.746094c2.617187.003906 5.085937-1.214844 6.675781-3.292969 1.589844-2.082031 2.121094-4.78125 1.429688-7.308594-18.742188-68.707031 25.03125-91.363281 27.046874-92.359375 4.035157-2.09375 5.671876-7.015625 3.695313-11.105468-1.980469-4.09375-6.855469-5.867188-11-4.003907-.585937.277344-58.5 29.160157-35.941406 111.882813.996093 3.652344 4.308593 6.183594 8.09375 6.1875zm0 0"/><path style="fill:#464646" d="m117.832031 50.539062c0 4.636719-3.757812 8.394532-8.390625 8.394532-4.636718 0-8.394531-3.757813-8.394531-8.394532 0-4.632812 3.757813-8.390624 8.394531-8.390624 4.632813 0 8.390625 3.757812 8.390625 8.390624zm0 0"/></svg>