<svg id="Layer_1" data-name="Layer 1" xmlns="http://www.w3.org/2000/svg" xmlns:xlink="http://www.w3.org/1999/xlink" viewBox="0 0 461.81 256.47"><defs><style>.cls-1{fill:none;clip-rule:evenodd;}.cls-2{fill:#dfa74e;}.cls-3{clip-path:url(#clip-path);}.cls-4{fill:url(#linear-gradient);}.cls-5{clip-path:url(#clip-path-2);}.cls-6{fill:url(#linear-gradient-2);}.cls-7{clip-path:url(#clip-path-3);}.cls-8{fill:url(#linear-gradient-3);}</style><clipPath id="clip-path"><path class="cls-1" d="M249.93,52V91.24l44.66-46-29.1-28.73H233.37V0h38.92l33.83,33.4v0L318,44.93v.22L307.23,56c-17.65,18.17-35,36.65-53,54.43H233.37v-75h32.48V52H249.93m14.9-15.56V51H248.91V93.72L296,45.24,265.91,15.51H234.39V1h37.48c14.89,14.7,29.73,29.37,44.71,43.93v.21c-21.12,21.29-41.52,43.29-62.87,64.33H234.39v-73Zm-37.4,0H196.92V51h16V93.72L165.79,45.24l30.12-29.73h31.52V1H189.94c-14.89,14.7-29.72,29.37-44.7,43.93v.21c21.11,21.29,41.51,43.29,62.86,64.33h19.33ZM143.8,44.93l11.88-11.55,0,0L189.53,0h38.91V16.55H196.32L167.23,45.28l44.66,46V52h-16V35.46h32.53v75H207.63c-18-17.78-35.39-36.26-53-54.42L143.8,45.15Z"/></clipPath><linearGradient id="linear-gradient" x1="230.91" y1="117.36" x2="230.91" gradientUnits="userSpaceOnUse"><stop offset="0" stop-color="#fefaf8"/><stop offset="0.24" stop-color="#e2a94d"/><stop offset="0.35" stop-color="#fcf5aa"/><stop offset="0.48" stop-color="#eabf65"/><stop offset="0.63" stop-color="#e7b054"/><stop offset="0.78" stop-color="#a46828"/><stop offset="1" stop-color="#231f20"/></linearGradient><clipPath id="clip-path-2"><path class="cls-1" d="M264.83,36.48V51H248.91V93.75L296,45.27,265.91,15.54H234.39V1h37.48C286.76,15.72,301.6,30.39,316.58,45v.21c-21.12,21.29-41.52,43.29-62.87,64.33H234.39v-73h30.44m-37.4,0H196.92V51h16V93.75L165.79,45.27l30.12-29.73h31.52V1H189.94c-14.89,14.7-29.72,29.37-44.7,43.93v.21c21.11,21.29,41.51,43.29,62.86,64.33h19.33Z"/></clipPath><linearGradient id="linear-gradient-2" x1="230.91" y1="1.02" x2="230.91" y2="115.37" gradientUnits="userSpaceOnUse"><stop offset="0" stop-color="#edd586"/><stop offset="0.24" stop-color="#e1a84e"/><stop offset="0.35" stop-color="#fef6aa"/><stop offset="0.48" stop-color="#ebc065"/><stop offset="0.63" stop-color="#e8b054"/><stop offset="0.78" stop-color="#a46928"/><stop offset="1" stop-color="#ecb452"/></linearGradient><clipPath id="clip-path-3"><path class="cls-1" d="M32.55,181a35,35,0,0,0-2.75-14.5q-3.68-8.13-11.08-8.14H6.94V203.5H18.72q7.28,0,11-8.06A34.34,34.34,0,0,0,32.55,181M18.72,205.67H0V156.2H18.94a19,19,0,0,1,15.55,7.36A25.42,25.42,0,0,1,40,180.15q0,10.54-5.24,17.68Q28.91,205.68,18.72,205.67Zm53.88,0H48.81V156.2H72.6v2.17H55.75V179H71.16v2.17H55.75V203.5H72.6ZM115,206.72l-32.91-42.1v41H80V156.2h3.6l29.24,36.48V156.2H115Zm29.23-48.35h-8.83v47.3h-6.87v-47.3h-9V156.2h24.74Zm29.07,30.45-10.53-23.95-10.63,23.95Zm14.9,16.85h-7.05L174.55,191H151.21l-6.51,14.67h-2.37l22.88-51.56Zm28.47,0H191.64V156.2h6.94v47.3h18.13ZM297.27,181a28.8,28.8,0,0,0-4.15-15.7q-4.81-7.64-13.49-7.63-8.83,0-13.63,7.85-4,6.56-4,16a27.25,27.25,0,0,0,4.3,15.41q4.89,7.43,13.35,7.42,8.67,0,13.49-7.63A28.79,28.79,0,0,0,297.27,181Zm8,.14q0,11.52-7.38,18.65T279,206.9q-10.74,0-17.55-7.34a25.7,25.7,0,0,1-6.81-18.15q0-11.1,6.85-18.55t17.86-7.45q11.31,0,18.61,7.21T305.23,181.12Zm31.56-22.75H319.94V179h15.4v2.17h-15.4v24.51H313V156.2h23.8Zm29.24,0H349.18V179h15.41v2.17H349.18v24.51h-6.94V156.2H366Zm12.39,47.3h-6.94V156.2h6.94Zm51.37-6.14q-6.72,6.72-19.36,6.72-10.8,0-17.45-7.26-6.48-7.08-6.49-17.94,0-12.5,7.83-19.07,7.29-6.21,20-6.21,8,0,15.32,6.82l-1.34,1.76q-7.92-5.7-15.91-5.69-9,0-13.7,6.85-4.19,6-4.17,15.32,0,9.6,4.17,15.61,4.8,6.93,14,6.92a23.23,23.23,0,0,0,15.41-5.46Zm32,6.14H438V156.2h23.79v2.17H445V179h15.41v2.17H445V203.5h16.85Z"/></clipPath><linearGradient id="linear-gradient-3" x1="230.91" y1="154.11" x2="230.91" y2="206.9" xlink:href="#linear-gradient-2"/></defs><title>dental office LOGO</title><path class="cls-2" d="M456.64,256.07h-7.78V239.9h7.78v.71h-5.51v6.74h5v.71h-5v7.3h5.51Zm-15.06-2a8.55,8.55,0,0,1-6.33,2.2,7.33,7.33,0,0,1-5.7-2.38,8.3,8.3,0,0,1-2.13-5.86,7.69,7.69,0,0,1,2.56-6.23,9.79,9.79,0,0,1,6.54-2,7.31,7.31,0,0,1,5,2.23l-.44.57a8.85,8.85,0,0,0-5.2-1.86,5.12,5.12,0,0,0-4.48,2.24,8.59,8.59,0,0,0-1.36,5,8.75,8.75,0,0,0,1.36,5.1,5.22,5.22,0,0,0,4.58,2.26,7.59,7.59,0,0,0,5-1.78Zm-21.4,2.35-10.76-13.76v13.42h-.68V239.9h1.17l9.56,11.92V239.9h.71Zm-18.47-.34h-7.77V239.9h7.77v.71h-5.5v6.74h5v.71h-5v7.3h5.5ZM384,248a11.39,11.39,0,0,0-.9-4.74,3.87,3.87,0,0,0-3.62-2.66h-3.85v14.75h3.85q2.37,0,3.6-2.64A11.24,11.24,0,0,0,384,248Zm-4.52,8.06h-6.12V239.9h6.19a6.23,6.23,0,0,1,5.08,2.4,8.34,8.34,0,0,1,1.8,5.43,9.47,9.47,0,0,1-1.71,5.77A6.19,6.19,0,0,1,379.51,256.07Zm-13.94,0H363.3V239.9h2.27Zm-8.65-15.46h-5.5v6.74h5v.71h-5v8h-2.27V239.9h7.77Zm-15.61,15.8-10.76-13.76v13.42h-.68V239.9h1.18l9.55,11.92V239.9h.71ZM320.14,248a9.44,9.44,0,0,0-1.36-5.13,5.15,5.15,0,0,0-8.87.07,9.86,9.86,0,0,0-1.31,5.22,8.86,8.86,0,0,0,1.41,5,5.14,5.14,0,0,0,8.77-.06A9.49,9.49,0,0,0,320.14,248Zm2.6,0a8.1,8.1,0,0,1-2.42,6.1,8.47,8.47,0,0,1-6.17,2.33,7.49,7.49,0,0,1-5.74-2.4,8.41,8.41,0,0,1-2.22-5.93,8.57,8.57,0,0,1,2.24-6.06,7.52,7.52,0,0,1,5.83-2.44,8.31,8.31,0,0,1,6.09,2.36A8.12,8.12,0,0,1,322.74,248Zm-23.22,6a8.55,8.55,0,0,1-6.33,2.2,7.33,7.33,0,0,1-5.7-2.38,8.3,8.3,0,0,1-2.13-5.86,7.67,7.67,0,0,1,2.57-6.23,9.74,9.74,0,0,1,6.53-2,7.31,7.31,0,0,1,5,2.23l-.44.57a8.85,8.85,0,0,0-5.2-1.86,5.12,5.12,0,0,0-4.48,2.24,8.59,8.59,0,0,0-1.36,5,8.75,8.75,0,0,0,1.36,5.1,5.22,5.22,0,0,0,4.58,2.26,7.59,7.59,0,0,0,5-1.78Zm-88.87-13.45h-2.88v15.46h-2.25V240.61h-3v-.71h8.08Zm-13.45,11a4.33,4.33,0,0,1-1.4,3.33,5,5,0,0,1-3.47,1.29,4.47,4.47,0,0,1-4.72-3.42l.74-.21q1.16,2.92,3.58,2.92a3.19,3.19,0,0,0,2.28-.84,2.91,2.91,0,0,0,.89-2.2,3.62,3.62,0,0,0-1.92-3.26c-1.17-.62-2.35-1.22-3.54-1.82a4,4,0,0,1-1.92-3.56,3.6,3.6,0,0,1,1.43-3,5,5,0,0,1,3.19-1,4.42,4.42,0,0,1,4.13,2.36l-.86.35a3.46,3.46,0,0,0-3.06-2,2.93,2.93,0,0,0-2.07.82,2.61,2.61,0,0,0-.89,2c0,1,.66,1.79,2,2.4,2.32,1.11,3.53,1.7,3.64,1.78A4.72,4.72,0,0,1,197.2,251.59Zm-16.65.37a4,4,0,0,1-1.31,3.13,4.85,4.85,0,0,1-3.33,1.15,5.08,5.08,0,0,1-3.29-1.09,3.8,3.8,0,0,1-1.43-3.09V239.9h2.27v12.16a3.28,3.28,0,0,0,.88,2.31,2.94,2.94,0,0,0,2.25.94,3.15,3.15,0,0,0,2.34-.95,3.3,3.3,0,0,0,.93-2.38V239.9h.69Zm-16.29,4.11h-2.67l-5-8.6a13.57,13.57,0,0,0,3.87-.34c1.22-.46,1.82-1.5,1.82-3.12a3,3,0,0,0-1.12-2.47,4.12,4.12,0,0,0-2.7-.93h-2.37v15.46h-2.27V239.9h5.24a5.92,5.92,0,0,1,3.57,1.07,3.75,3.75,0,0,1,1.66,3.22,3.53,3.53,0,0,1-1.54,3,7.19,7.19,0,0,1-3.25,1.18Zm-16.45-15.46h-2.88v15.46h-2.25V240.61h-3v-.71h8.08Zm-82.6,15.46H57.43V239.9h7.78v.71H59.7v6.74h5v.71h-5v7.3h5.51Zm-14.7,0H47.83l-5-8.6a13.57,13.57,0,0,0,3.87-.34,3.44,3.44,0,0,0,.69-5.59,4.09,4.09,0,0,0-2.69-.93H42.37v15.46H40.1V239.9h5.23A6,6,0,0,1,48.91,241a3.75,3.75,0,0,1,1.66,3.22,3.53,3.53,0,0,1-1.54,3,7.19,7.19,0,0,1-3.25,1.18Zm-21-5.51-3.44-7.83-3.48,7.83Zm4.87,5.51h-2.3l-2.17-4.8H22.29l-2.13,4.8h-.78l7.48-16.86Zm-20.21-2q-2.19,2.2-6.33,2.2a7.35,7.35,0,0,1-5.7-2.38A8.34,8.34,0,0,1,0,248a7.66,7.66,0,0,1,2.56-6.23,9.76,9.76,0,0,1,6.53-2,7.31,7.31,0,0,1,5,2.23l-.43.57a8.88,8.88,0,0,0-5.2-1.86A5.14,5.14,0,0,0,4,242.94a8.66,8.66,0,0,0-1.36,5A8.83,8.83,0,0,0,4,253.05a5.23,5.23,0,0,0,4.58,2.26,7.55,7.55,0,0,0,5-1.78Z"/><rect class="cls-2" x="246.97" y="240.07" width="0.75" height="16"/><rect class="cls-2" y="221.01" width="461.81" height="2.25"/><rect class="cls-2" x="103.1" y="240.07" width="0.75" height="16"/><g class="cls-3"><rect class="cls-4" x="143.8" width="174.22" height="110.45"/></g><g class="cls-5"><rect class="cls-6" x="145.24" y="1.02" width="171.35" height="108.48"/></g><g class="cls-7"><rect class="cls-8" y="154.11" width="461.81" height="52.8"/></g></svg>