<svg height="510pt" viewBox="0 0 510 510.62935" width="510pt" xmlns="http://www.w3.org/2000/svg"><path style="fill: #464646" d="m510.640625 196.570312c.121094-80.339843-48.730469-152.640624-123.3125-182.5-74.582031-29.863281-159.832031-11.257812-215.1875 46.964844-55.359375 58.222656-69.644531 144.300782-36.058594 217.28125l-14.789062 14.796875c-9.996094 10-9.996094 26.203125 0 36.199219l-108.613281 108.613281c-16.539063 16.683594-16.480469 43.597657.132812 60.207031 16.609375 16.609376 43.523438 16.667969 60.207031.132813l108.613281-108.613281c9.996094 9.992187 26.199219 9.992187 36.195313 0l14.875-14.867188c60.714844 27.910156 131.460937 22.976563 187.710937-13.09375 56.25-36.066406 90.257813-98.300781 90.226563-165.121094zm-449.703125 289.628907c-6.46875 6.46875-15.898438 8.992187-24.730469 6.625-8.835937-2.367188-15.738281-9.269531-18.105469-18.101563-2.367187-8.835937.160157-18.261718 6.628907-24.730468l108.628906-108.613282 36.207031 36.207032zm144.808594-108.613281c-3.332032 3.332031-8.734375 3.332031-12.066406 0l-60.339844-60.339844c-3.332032-3.332032-3.332032-8.734375 0-12.066406l10.921875-10.929688c17.15625 30.238281 42.207031 55.242188 72.476562 72.34375zm-18.097656-54.304688c-69.976563-69.984375-69.972657-183.445312.007812-253.425781 69.980469-69.976563 183.441406-69.976563 253.421875 0 69.980469 69.980469 69.984375 183.441406.007813 253.425781-33.453126 33.890625-79.089844 52.964844-126.710938 52.964844s-93.257812-19.074219-126.710938-52.964844zm0 0"/><path style="fill: #464646" d="m421.894531 89.023438c-59.382812-59.328126-155.609375-59.296876-214.957031.066406-59.34375 59.363281-59.34375 155.59375 0 214.957031 59.347656 59.363281 155.574219 59.394531 214.957031.066406 59.308594-59.429687 59.308594-155.660156 0-215.089843zm-12.039062 203.023437c-52.71875 52.671875-138.152344 52.640625-190.835938-.058594-52.6875-52.703125-52.6875-138.136719 0-190.839843 52.683594-52.699219 138.117188-52.726563 190.835938-.058594 52.640625 52.769531 52.640625 138.1875 0 190.957031zm0 0"/><path style="fill: #464646" d="m314.375 109.792969c-23.773438-16.410157-55.632812-14.695313-77.507812 4.171875-21.207032 20.308594-18.839844 52.855468-9.558594 76.554687 2.675781 6.363281 5.902344 12.484375 9.644531 18.285157 1.792969 2.960937 3.59375 5.972656 5.246094 9.027343 4.652343 8.234375 7.695312 17.277344 8.960937 26.652344 1.027344 11.667969 2.996094 23.238281 5.878906 34.59375 2.355469 8.730469 7.246094 26.886719 24.125 26.886719 9.207032 0 20.753907-7.023438 28.375-61.746094 1.066407-7.585938 3.285157-9.132812 4.835938-9.539062 1.5625.40625 3.773438 1.953124 4.839844 9.511718 7.621094 54.75 19.164062 61.773438 28.371094 61.773438 16.878906 0 21.769531-18.15625 24.109374-26.828125 2.894532-11.375 4.867188-22.96875 5.894532-34.664063 1.269531-9.371094 4.308594-18.414062 8.960937-26.648437 1.65625-3.089844 3.457031-6.058594 5.246094-9.019531 3.734375-5.804688 6.953125-11.925782 9.617187-18.296876 9.285157-23.6875 11.648438-56.234374-9.546874-76.542968-21.875-18.855469-53.71875-20.570313-77.492188-4.171875zm71.175781 74.488281c-2.332031 5.457031-5.125 10.703125-8.351562 15.683594-1.957031 3.234375-3.910157 6.46875-5.703125 9.832031-5.679688 10.121094-9.367188 21.238281-10.859375 32.75-.964844 10.820313-2.769531 21.550781-5.402344 32.09375-1.050781 3.875-3.371094 12.492187-6.640625 14.027344-2.5-3.105469-8.105469-15.425781-12.476562-46.847657-2.609376-18.449218-12.730469-23.382812-20.769532-24.277343-.320312.011719-.644531.039062-.964844.085937-.324218-.050781-.652343-.078125-.980468-.085937-8.039063.855469-18.160156 5.828125-20.769532 24.304687-4.371093 31.394532-9.976562 43.714844-12.476562 46.820313-3.265625-1.535157-5.597656-10.152344-6.65625-14.097657-2.621094-10.515624-4.421875-21.21875-5.382812-32.015624-1.492188-11.511719-5.179688-22.628907-10.863282-32.75-1.792968-3.414063-3.746094-6.605469-5.699218-9.839844-3.226563-4.980469-6.019532-10.222656-8.355469-15.675782-6.9375-17.699218-9.667969-43.519531 5.476562-58.027343 17.449219-14.484375 42.816407-14.210938 59.949219.640625.085938.078125.195312.09375.289062.171875.09375.074219.136719.195312.230469.273437 10.511719 8.042969 18.746094 18.6875 23.894531 30.878906 1.0625 3.636719 4.394532 6.132813 8.183594 6.136719.8125 0 1.625-.117187 2.40625-.347656 4.519532-1.328125 7.109375-6.070313 5.785156-10.589844-4.429687-12.238281-11.75-23.226562-21.332031-32.027343 16.679688-9.328126 37.390625-7.390626 52.050781 4.871093 15.085938 14.515625 12.355469 40.320313 5.417969 58.011719zm0 0"/><path style="fill: #464646" d="m267.621094 127.808594c-13.988282 8.097656-21.136719 24.316406-17.671875 40.105468.976562 4.609376 5.503906 7.558594 10.117187 6.582032 4.609375-.976563 7.558594-5.503906 6.582032-10.117188-1.996094-8.453125 1.734374-17.226562 9.207031-21.65625 4.128906-2.273437 5.632812-7.464844 3.359375-11.59375-2.273438-4.125-7.464844-5.628906-11.59375-3.355468zm0 0"/></svg>