<svg height="503pt" viewBox="0 0 503 503.77993" width="503pt" xmlns="http://www.w3.org/2000/svg"><path style="fill:#464646;" d="m497.085938 55.570312c-42.074219-7.042968-81.652344-24.714843-114.980469-51.34375l-2.761719-2.214843c-3.066406-2.457031-7.425781-2.457031-10.492188 0l-2.753906 2.207031c-.839844.671875-1.730468 1.269531-2.578125 1.921875-47.003906-13.550781-97.652343-3.921875-136.410156 25.929687-54.011719-43.898437-140.453125-42.808593-188.953125 3.757813-49.417969 47.363281-43.394531 124.660156-21.226562 181.199219 6.589843 15.5625 14.503906 30.527344 23.652343 44.734375 4.660157 7.699219 9.476563 15.65625 13.765625 23.714843 12.714844 22.539063 21 47.300782 24.417969 72.953126 2.578125 29.183593 7.484375 58.113281 14.679687 86.511718 5.53125 20.5625 15.847657 58.839844 48.722657 58.839844 25.785156 0 45.730469-49.253906 59.257812-146.382812 4.734375-33.449219 19.625-35.539063 25.535157-36.226563 6.832031.789063 21.199218 3.484375 25.832031 36.210937 13.53125 97.144532 33.476562 146.398438 59.257812 146.398438 32.878907 0 43.195313-38.277344 48.683594-58.753906 5.757813-22.0625 9.878906-44.519532 12.320313-67.191406.335937 0 .671874.09375 1.007812.09375 4.84375-.003907 9.511719-1.816407 13.085938-5.085938l80.453124-73.132812c23.214844-21.128907 36.460938-51.058594 36.492188-82.449219v-153.425781c-.003906-4.09375-2.96875-7.589844-7.007812-8.265626zm-185.035157 431.421876c-8.390625 0-28.089843-27.570313-42.636719-131.945313-4.390624-31.054687-18.289062-48.085937-41.296874-50.636719-.667969-.074218-1.34375-.074218-2.011719 0-23.007813 2.519532-36.933594 19.589844-41.296875 50.65625-14.546875 104.355469-34.253906 131.925782-42.640625 131.925782-18.464844 0-26.464844-23.953126-32.539063-46.480469-6.902344-27.570313-11.648437-55.632813-14.1875-83.9375-3.632812-27.769531-12.550781-54.585938-26.277344-78.996094-4.5-8.460937-9.445312-16.621094-14.269531-24.511719-8.652343-13.390625-16.140625-27.503906-22.378906-42.175781-20.132813-51.46875-26.210937-121.308594 17.265625-162.949219 43.480469-41.640625 125.238281-40.984375 171.671875 1.402344 3.207031 2.921875 8.109375 2.921875 11.316406 0 30.96875-26.652344 72.363281-37.804688 112.53125-30.320312-28.589843 18.453124-60.632812 30.890624-94.183593 36.546874-4.046876.675782-7.007813 4.175782-7.007813 8.277344v153.414063c.027344 31.378906 13.261719 61.292969 36.460937 82.421875l76.640626 69.667968c-2.378907 24.027344-6.589844 47.839844-12.59375 71.226563-6.101563 22.460937-14.097657 46.414063-32.566407 46.414063zm175.257813-269.730469c-.03125 26.648437-11.269532 52.054687-30.964844 70l-80.449219 73.132812c-1.015625.929688-2.570312.929688-3.585937 0l-80.449219-73.164062c-19.699219-17.949219-30.9375-43.355469-30.964844-70.003907v-146.371093c41.265625-8.042969 80.050781-25.710938 113.203125-51.5625 33.15625 25.851562 71.941406 43.519531 113.210938 51.5625zm0 0"/><path style="fill:#464646;" d="m369.378906 43.449219c-26.117187 17.765625-55.023437 31.035156-85.519531 39.265625-3.664063.984375-6.210937 4.304687-6.210937 8.097656v126.449219c.015624 21.925781 9.265624 42.832031 25.480468 57.59375l65.320313 59.375c3.199219 2.914062 8.09375 2.914062 11.296875 0l65.324218-59.375c16.199219-14.769531 25.4375-35.671875 25.449219-57.59375v-126.4375c0-3.792969-2.542969-7.113281-6.203125-8.101563-30.496094-8.230468-59.40625-21.5-85.527344-39.265625-2.839843-1.925781-6.566406-1.925781-9.410156-.007812zm84.355469 53.726562v120.085938c-.011719 17.199219-7.261719 33.597656-19.976563 45.179687l-59.660156 54.25-59.695312-54.25c-12.71875-11.574218-19.972656-27.972656-19.984375-45.171875v-120.09375c28.207031-8.261719 55.050781-20.625 79.660156-36.695312 24.613281 16.0625 51.453125 28.429687 79.65625 36.695312zm0 0"/><path style="fill:#464646;" d="m345.644531 183.8125c-9.972656-9.5-25.644531-9.5-35.613281 0-4.726562 4.722656-7.378906 11.128906-7.378906 17.808594 0 6.679687 2.652344 13.082031 7.378906 17.804687l25.179688 25.179688c4.710937 4.738281 11.121093 7.390625 17.800781 7.371093h1.402343c7.148438-.402343 13.785157-3.824218 18.253907-9.417968l67.148437-83.933594c5.75-7.011719 7.289063-16.574219 4.023438-25.03125-3.261719-8.460938-10.824219-14.511719-19.792969-15.84375s-17.964844 2.261719-23.542969 9.40625l-49.582031 61.96875zm12.53125 23.089844 55.394531-69.285156c1.394532-1.738282 3.417969-2.855469 5.632813-3.097657 2.214844-.257812 4.4375.386719 6.167969 1.785157 1.742187 1.394531 2.855468 3.417968 3.101562 5.632812.246094 2.210938-.398437 4.433594-1.789062 6.171875l-67.148438 83.933594c-1.484375 1.855469-3.6875 2.996093-6.0625 3.136719h-.460937c-2.226563.007812-4.363281-.878907-5.933594-2.457032l-25.179687-25.179687c-2.183594-2.109375-3.058594-5.230469-2.289063-8.164063s3.058594-5.226562 5.996094-5.996094c2.933593-.765624 6.054687.109376 8.160156 2.289063l11.917969 11.921875c1.691406 1.6875 4.019531 2.574219 6.402344 2.441406 2.382812-.132812 4.597656-1.273437 6.089843-3.140625zm0 0"/><path style="fill:#464646;" d="m193.535156 109.289062c-37.066406-.042968-67.105468-30.082031-67.144531-67.148437 0-4.636719-3.757813-8.394531-8.394531-8.394531-4.636719 0-8.394532 3.757812-8.394532 8.394531-.039062 37.066406-30.078124 67.105469-67.148437 67.148437-4.632813 0-8.390625 3.757813-8.390625 8.390626 0 4.636718 3.757812 8.394531 8.390625 8.394531 37.070313.042969 67.109375 30.082031 67.148437 67.148437 0 4.636719 3.757813 8.394532 8.394532 8.394532 4.636718 0 8.394531-3.757813 8.394531-8.394532.039063-37.066406 30.078125-67.105468 67.144531-67.148437 4.636719 0 8.394532-3.757813 8.394532-8.394531 0-4.632813-3.757813-8.390626-8.394532-8.390626zm-75.539062 47.363282c-8.269532-16.980469-21.988282-30.703125-38.972656-38.972656 16.984374-8.265626 30.703124-21.988282 38.972656-38.96875 8.269531 16.980468 21.988281 30.703124 38.96875 38.96875-16.980469 8.269531-30.699219 21.992187-38.96875 38.972656zm0 0"/></svg>