<svg height="496pt" viewBox="0 0 496 496.71221" width="496pt" xmlns="http://www.w3.org/2000/svg"><path style="fill:#464646;" d="m8.613281 380.71875h56.484375c1.671875 5.671875 2.875 11.472656 3.601563 17.34375 1.722656 19.460938 4.996093 38.75 9.792969 57.691406 3.859374 14.308594 11.042968 40.957032 34.882812 40.957032 6.9375 0 28.078125 0 41.917969-99.269532 2.683593-18.992187 10.296875-21.082031 14.320312-21.617187 4.003907.527343 11.652344 2.589843 14.34375 21.601562 13.824219 99.285157 34.972657 99.285157 41.925781 99.285157 23.832032 0 31.019532-26.648438 34.859376-40.902344 4.777343-18.964844 8.058593-38.277344 9.808593-57.753906.722657-5.867188 1.925781-11.664063 3.59375-17.335938h213.4375c4.5625 0 8.257813-3.695312 8.257813-8.257812 0-4.558594-3.695313-8.257813-8.257813-8.257813h-121.128906l11.691406-43.765625c2.109375.554688 4.28125.832031 6.460938.824219 11.195312-.023438 20.984375-7.550781 23.878906-18.367188l2.554687-9.519531c10.476563-.636719 19.34375-7.953125 21.957032-18.121094l36.714844-137.082031c12.027343-.921875 21.632812-10.382813 22.734374-22.390625 1.105469-12.011719-6.617187-23.0625-18.273437-26.160156l-15.957031-4.269532 6.417968-23.945312c13.226563 3.539062 26.820313-4.3125 30.359376-17.539062 3.542968-13.226563-4.308594-26.816407-17.535157-30.359376l-47.847656-12.660156c-13.207031-3.535156-26.785156 4.300782-30.332031 17.507813-1.703125 6.347656-.8125 13.109375 2.472656 18.800781s8.695312 9.847656 15.042969 11.546875l-6.414063 23.949219-15.957031-4.277344c-11.65625-3.199219-23.914063 2.503906-28.976563 13.480469-5.058593 10.976562-1.4375 24.003906 8.5625 30.789062l-36.722656 137.003907c-2.777344 10.121093 1.210938 20.882812 9.910156 26.753906l-2.476562 9.421875c-1.703125 6.347656-.816406 13.109375 2.46875 18.800781 3.28125 5.691406 8.691406 9.847656 15.035156 11.550781l-12.855468 48.027344h-69.433594c1.90625-4.433594 4.019531-8.925781 6.488281-13.542969 2.835937-5.328125 5.9375-10.445312 9.035156-15.558594 6.148438-9.542968 11.457031-19.597656 15.863281-30.058593 15.007813-38.25 18.996094-90.632813-14.691406-122.921875-32.558594-31.265625-90.152344-32.429688-127.007812-3.882813-36.863282-28.546875-94.464844-27.375-127 3.875-33.71875 32.296875-29.730469 84.679688-14.699219 122.9375 4.417969 10.464844 9.734375 20.527344 15.886719 30.074219 3.089844 5.105469 6.195312 10.21875 9.019531 15.535156 2.476563 4.617188 4.582031 9.082032 6.480469 13.542969h-50.695313c-4.558593 0-8.257812 3.699219-8.257812 8.257813 0 4.5625 3.699219 8.257812 8.257812 8.257812zm407.4375-351.851562c-1.472656-2.550782-1.476562-5.695313-.003906-8.25 1.46875-2.554688 4.191406-4.128907 7.136719-4.136719.730468 0 1.453125.09375 2.15625.28125l47.898437 12.824219c2.847657.765624 5.074219 2.992187 5.835938 5.84375.761719 2.851562-.054688 5.894531-2.140625 7.980468-2.089844 2.082032-5.132813 2.898438-7.980469 2.132813l-7.980469-2.140625-31.933594-8.546875-7.976562-2.140625c-2.117188-.5625-3.921875-1.945313-5.011719-3.847656zm32.644531 28.351562-6.410156 23.949219-15.953125-4.269531 6.40625-23.949219zm-31.636718 213.800781c-.558594 2.121094-1.945313 3.929688-3.847656 5.019531-1.898438 1.097657-4.152344 1.394532-6.269532.828126l-47.894531-12.824219c-2.117187-.570313-3.921875-1.953125-5.015625-3.851563-1.097656-1.894531-1.390625-4.152344-.824219-6.265625l2.136719-7.976562 15.957031 4.277343c.699219.183594 1.421875.28125 2.144531.28125 4.144532-.007812 7.640626-3.082031 8.175782-7.1875.539062-4.109374-2.050782-7.976562-6.050782-9.050781l-15.945312-4.269531 4.269531-15.960938 15.953125 4.277344c.699219.1875 1.421875.285156 2.148438.289063 4.152344.011719 7.671875-3.0625 8.214844-7.183594.539062-4.121094-2.066407-8-6.085938-9.058594l-15.953125-4.269531 4.277344-15.957031 15.945312 4.269531c.699219.195312 1.421875.289062 2.148438.289062 4.140625 0 7.644531-3.074218 8.183593-7.183593.539063-4.109375-2.050781-7.980469-6.054687-9.050781l-15.953125-4.277344 4.277344-15.953125 15.945312 4.277343c.699219.1875 1.421875.285157 2.148438.289063 4.15625.011719 7.671875-3.066406 8.214844-7.1875.539062-4.117187-2.066407-8-6.085938-9.058594l-15.953125-4.277343 4.277344-15.953126 31.972656 8.546876 31.871094 8.585937zm-37.019532-180.851562c.957032-3.609375 4.21875-6.125 7.949219-6.136719.730469.003906 1.453125.101562 2.15625.289062l79.765625 21.371094c2.863282.753906 5.101563 2.980469 5.875 5.835938.769532 2.859375-.046875 5.910156-2.140625 8s-5.148437 2.898437-8.003906 2.121094l-79.765625-21.371094c-4.402344-1.183594-7.015625-5.707032-5.835938-10.109375zm-19.390624 199.9375 2.136718-7.972657 31.902344 8.574219-2.140625 7.976563c-1.179687 4.402344-5.703125 7.015625-10.105469 5.839844l-15.957031-4.277344c-2.113281-.570313-3.917969-1.953125-5.011719-3.851563-1.097656-1.894531-1.394531-4.148437-.824218-6.265625zm-317.351563 8.910156c-13.046875-33.273437-17.078125-78.320313 10.738281-104.976563 27.8125-26.660156 80.226563-26.222656 110.003906.972657.082032.074219.191407.089843.28125.164062.089844.074219.125.191407.222657.257813.339843.273437 34.164062 26.820312 42.578125 55.484375 1.035156 3.523437 4.273437 5.941406 7.945312 5.929687.785156 0 1.566406-.113281 2.320313-.335937 2.101562-.617188 3.875-2.042969 4.925781-3.964844s1.296875-4.183594.679688-6.285156c-7.214844-24.585938-28.589844-46.476563-40.355469-57.105469 30.445312-21.1875 76.933593-19.710938 102.566406 4.890625 27.820313 26.648437 23.789063 71.695313 10.734375 104.960937-4.078125 9.578126-8.972656 18.792969-14.625 27.539063-3.246094 5.367187-6.507812 10.734375-9.480469 16.34375-9.25 16.457031-15.261719 34.535156-17.714843 53.253906-1.664063 18.636719-4.78125 37.113281-9.324219 55.265625-3.746094 13.90625-8.601563 28.746094-18.917969 28.746094-4.558594-.539062-16.804688-22.027344-25.597656-85.058594-3.105469-21.941406-13.117188-33.992187-29.730469-35.839844-.320313.007813-.636719.039063-.949219.089844-.324218-.050781-.65625-.082031-.984375-.089844-16.621093 1.847657-26.625 13.90625-29.726562 35.855469-8.78125 62.984375-21.027344 84.496094-25.558594 85.058594-10.324219 0-15.1875-14.863281-18.945313-28.804687-4.570312-18.121094-7.6875-36.578126-9.316406-55.195313-2.457031-18.722656-8.46875-36.800781-17.710937-53.265625-2.972657-5.582031-6.226563-10.957031-9.472657-16.328125-5.636718-8.757813-10.515624-17.976563-14.585937-27.5625zm0 0"/><path style="fill:#464646;" d="m85.539062 211.777344c3.851563-2.261719 5.207032-7.175782 3.058594-11.09375-2.144531-3.914063-7.019531-5.414063-10.996094-3.382813-21.355468 12.375-32.230468 37.164063-26.871093 61.257813.808593 3.828125 4.195312 6.5625 8.109375 6.546875.578125 0 1.152344-.058594 1.71875-.171875 2.144531-.453125 4.019531-1.738282 5.214844-3.574219 1.199218-1.839844 1.613281-4.074219 1.160156-6.21875-3.839844-16.960937 3.667968-34.460937 18.605468-43.363281zm0 0"/></svg>