<svg height="511pt" viewBox="-76 0 511 511.71353" width="511pt" xmlns="http://www.w3.org/2000/svg"><path style="fill: #464646" d="m358.445312 69.746094c-2.910156-31.53125-24.871093-58.039063-55.304687-66.765625-30.4375-8.726563-63.109375 2.117187-82.285156 27.316406-4.128907 5.402344-5.84375 12.269531-4.734375 18.976563 1.121094 6.992187 5.042968 13.226562 10.859375 17.261718 11.066406 7.546875 26.070312 5.351563 34.511719-5.050781 7.242187-9.65625 20.25-12.941406 31.210937-7.878906s16.894531 17.097656 14.238281 28.875c-2.65625 11.777343-13.179687 20.097656-25.25 19.964843-6.804687-.019531-13.34375 2.636719-18.210937 7.390626-4.570313 4.527343-7.128907 10.695312-7.109375 17.125v146.152343c-9.425782 0-17.066406 7.640625-17.066406 17.066407v25.597656c.019531 2.875.769531 5.691406 2.183593 8.191406l-10.71875 136.875c.121094 18.292969 9.988281 35.132812 25.890625 44.175781 15.898438 9.042969 35.417969 8.914063 51.199219-.332031 15.78125-9.25 25.429687-26.214844 25.3125-44.507812l-10.617187-136.363282c1.355468-2.460937 2.074218-5.226562 2.082031-8.039062v-25.597656c0-9.425782-7.640625-17.066407-17.066407-17.066407v-123.820312c33.214844-11.6875 54.199219-44.496094 50.875-79.546875zm-52.324218 263.097656 8.652344 110.933594h-65.570313l8.679687-110.933594zm-24.148438 162.136719c-18.609375.035156-33.804687-14.863281-34.136718-33.46875v-.667969h68.269531c0 18.851562-15.28125 34.136719-34.132813 34.136719zm25.597656-179.203125h-51.199218v-25.597656h51.199218zm-10.664062-181.058594c-3.769531.972656-6.402344 4.371094-6.402344 8.261719v130.132812h-17.066406v-146.152343c-.015625-1.886719.738281-3.703126 2.082031-5.027344 1.726563-1.621094 4.023438-2.492188 6.390625-2.421875 7.507813-.023438 14.878906-2.003907 21.386719-5.742188 15.058594-8.617187 23.398437-25.496093 21.09375-42.691406-2.300781-17.199219-14.789063-31.289063-31.582031-35.640625-16.792969-4.355469-34.554688 1.894531-44.917969 15.808594-2.921875 3.128906-7.683594 3.667968-11.230469 1.269531-1.976562-1.375-3.304687-3.492187-3.6875-5.871094-.367187-2.105469.15625-4.269531 1.449219-5.972656 14.902344-19.597656 40.300781-28.046875 63.972656-21.277344 23.671875 6.765625 40.765625 27.363281 43.054688 51.878907 2.785156 29.226562-16.109375 56.136718-44.542969 63.445312zm0 0"/><path style="fill: #464646" d="m153.972656 76.84375c.003906-20.191406-7.972656-39.570312-22.1875-53.910156-.121094-.128906-.152344-.300782-.28125-.421875-.128906-.117188-.292968-.160157-.417968-.28125-8.128907-8.003907-17.9375-14.101563-28.714844-17.851563l-.15625-.066406c-27.761719-9.691406-58.625-2.632812-79.417969 18.160156-20.792969 20.792969-27.847656 51.652344-18.160156 79.417969l.0625.152344c3.746093 10.777343 9.847656 20.585937 17.859375 28.714843.117187.128907.152344.300782.28125.417969.128906.121094.289062.164063.417968.28125 8.027344 7.90625 17.691407 13.949219 28.3125 17.707031v123.949219c-9.425781 0-17.066406 7.640625-17.066406 17.066407v25.597656c.019532 2.875.769532 5.691406 2.183594 8.191406l-10.714844 136.875c.117188 18.292969 9.984375 35.132812 25.886719 44.175781s35.417969 8.914063 51.199219-.332031c15.78125-9.25 25.429687-26.214844 25.3125-44.507812l-10.617188-136.363282c1.359375-2.460937 2.074219-5.226562 2.082032-8.039062v-25.597656c0-9.425782-7.640626-17.066407-17.066407-17.066407v-123.949219c30.644531-10.855468 51.144531-39.8125 51.203125-72.320312zm-76.800781 59.734375c-12.882813 0-25.414063-4.195313-35.703125-11.945313l83.488281-83.492187c13.589844 18.078125 15.78125 42.292969 5.65625 62.515625s-30.824219 32.972656-53.441406 32.921875zm-54.613281-35.695313 78.675781-78.675781c4.136719 1.835938 8.050781 4.140625 11.664063 6.867188l-83.515626 83.472656c-2.710937-3.613281-5-7.527344-6.824218-11.664063zm54.613281-83.769531c1.605469 0 3.183594.117188 4.761719.238281l-64.257813 64.253907c-.117187-1.578125-.238281-3.15625-.238281-4.761719.039062-32.972656 26.757812-59.695312 59.734375-59.730469zm24.148437 315.730469 8.652344 110.933594h-65.570312l8.679687-110.933594zm-24.148437 162.136719c-18.609375.035156-33.804687-14.863281-34.132813-33.46875v-.667969h68.265626c0 18.851562-15.28125 34.136719-34.132813 34.136719zm25.597656-179.203125h-51.199219v-25.597656h51.199219zm-17.066406-42.664063h-17.066406v-119.972656c5.671875.671875 11.398437.671875 17.066406 0zm0 0"/></svg>